<svg xmlns="http://www.w3.org/2000/svg" version="1.1" viewBox="0 0 16933 16933"><path d="m11350 15534-5764-1a2073 2073 0 01-1798-1036L905 9503A2073 2073 0 01 907 7430l2880-4991a2073 2073 0 01 1795-1040h5768a2073 2073 0 01 1796 1037l2883 4993a2073 2073 0 01 0 2074l-2884 4994a2073 2073 0 01-1795 1037"/><rect fill="#fff" width="6992" height="1614" x="4978" y="4510" rx="684" ry="684"/><rect fill="#fff" width="6992" height="1614" x="4993" y="10380" rx="684" ry="684"/><rect fill="#fff" width="6992" height="1614" x="5037" y="7445" rx="684" ry="684"/></svg>
