<svg xmlns="http://www.w3.org/2000/svg" version="1.1" viewBox="0 0 16933 16933"><path d="M10871 14360H6063a1729 1729 0 01-1500-864L2160 9330a1729 1729 0 01 2-1730l2402-4160a1729 1729 0 01 1497-864l4811-2a1729 1729 0 01 1499 865L14773 7600a1729 1729 0 01 0 1731l-2405 4165a1729 1729 0 01-1497 865" fill="#000" fill-opacity="1"/><path d="M9288 10897c871-628 997-1886 350-2788-647-903-1877-1184-2748-556l-1931 1390c-872 628-999 1887-352 2790 647 902 1878 1182 2750 555zm-515-718-1930 1391c-450 323-1123 200-1520-354-396-552-298-1232 150-1555l1931-1390c450-319 1122-197 1520 357 395 552 298 1232-150 1555Z" fill="#fff" color="#000" style="-inkscape-stroke:none"/><path d="m7990 6860-1320 625c-16 421 85 853 300 1240l1204-570c-249-364-243-765-61-1037Z" fill="#000" color="#000" style="-inkscape-stroke:none"/><path d="M10660 4307a1794 1794 0 00-1083 338L7645 6037c-871 627-997 1885-350 2788 386 539 980 856 1582 890 117-253 104-584-89-894a1240 1240 0 01-777-513c-396-552-300-1230 148-1554l1933-1392c449-323 1120-198 1517 355 396 553 301 1232-147 1555l-1445 1040c144 290 225 601 244 912l1715-1235c870-628 997-1886 350-2788a2110 2110 0 00-1667-894Z" fill="#fff" color="#000" style="-inkscape-stroke:none"/></svg>
