<svg xmlns="http://www.w3.org/2000/svg" version="1.1" viewBox="0 0 16933 16933"><g fill="#000" color="#000"><path d="M2496 8723a3260 3260 0 00-3252 3252 3260 3260 0 00 3252 3252 3260 3260 0 00 3252-3252 3260 3260 0 00-3252-3252zm0 1056c1218 0 2193 978 2193 2196a2185 2185 0 01-2193 2193 2187 2187 0 01-2195-2193c0-1218 977-2196 2195-2196" style="-inkscape-stroke:none" transform="rotate(-45)"/><path d="M8133 8271a529 529 0 00-375 157l-3410 3408a529 529 0 00 0 750 529 529 0 00 748 0l3410-3410a529 529 0 00 0-748 529 529 0 00-373-157" style="-inkscape-stroke:none"/></g></svg>
