<svg xmlns="http://www.w3.org/2000/svg" version="1.1" viewBox="0 0 16933 16933"><path d="M8464.406 1929.482a1729 1729 0 0 0-864.254 231.354L3439.96 4562.502a1729 1729 0 0 0-866.73 1497.223l-1.942 4809.363a1729 1729 0 0 0 867.037 1498.246l4163.852 2404-.5.865a1729 1729 0 0 0 1728.94-.611l4165.29-2404.496a1729 1729 0 0 0 865.5-1499.09l.307-4804.533a1729 1729 0 0 0-865.672-1498.612L9328.594 2161.09a1729 1729 0 0 0-864.188-231.608zm.338 1054.03a1450.216 1450.216 0 0 1 724.846 194.26l3495.486 2016.187a1450.216 1450.216 0 0 1 726.094 1256.975l-.26 4029.849a1450.216 1450.216 0 0 1-725.945 1257.377l-3493.68 2016.795a1450.216 1450.216 0 0 1-1450.166.514l.42-.727-3492.47-2016.38a1450.216 1450.216 0 0 1-727.239-1256.67l1.63-4033.9a1450.216 1450.216 0 0 1 726.98-1255.81L7739.842 3177.56a1450.216 1450.216 0 0 1 724.902-194.048z" fill="#555" fill-opacity="1"/><rect fill="#555" fill-opacity="1" width="949.063" height="4837.222" x="7973.333" y="4096.072" rx="474.532" ry="474.532"/><rect fill="#555" fill-opacity="1" width="949.063" height="3765.408" x="-12026.005" y="-207.21" rx="474.532" ry="474.532" transform="rotate(-120)"/></svg>